<?xml version="1.0" encoding="utf-8" ?>
<svg baseProfile="tiny" height="164" version="1.2" viewBox="0 0 752 164" width="752" xmlns="http://www.w3.org/2000/svg" xmlns:ev="http://www.w3.org/2001/xml-events" xmlns:xlink="http://www.w3.org/1999/xlink"><defs /><path d="M 78,50 L 77,51 L 73,51 L 72,52 L 71,52 L 70,53 L 69,53 L 68,54 L 67,54 L 66,55 L 65,55 L 61,59 L 60,59 L 60,60 L 57,63 L 57,64 L 55,66 L 55,67 L 54,68 L 54,69 L 53,70 L 53,73 L 52,74 L 52,80 L 51,81 L 52,82 L 52,88 L 53,89 L 53,92 L 54,93 L 54,94 L 55,95 L 55,96 L 57,98 L 57,99 L 60,102 L 60,103 L 61,103 L 65,107 L 66,107 L 67,108 L 68,108 L 69,109 L 70,109 L 71,110 L 72,110 L 73,111 L 77,111 L 78,112 L 88,112 L 89,111 L 92,111 L 93,110 L 95,110 L 96,109 L 97,109 L 98,108 L 99,108 L 100,107 L 101,107 L 109,99 L 109,98 L 110,97 L 110,96 L 111,95 L 111,94 L 112,93 L 112,92 L 113,91 L 113,89 L 114,88 L 114,74 L 113,73 L 113,71 L 112,70 L 112,69 L 111,68 L 111,67 L 110,66 L 110,65 L 109,64 L 109,63 L 101,55 L 100,55 L 99,54 L 98,54 L 97,53 L 96,53 L 95,52 L 93,52 L 92,51 L 89,51 L 88,50 Z" fill="white" stroke="black" stroke-width="1" /><path d="M 672,43 L 672,50 L 671,51 L 671,65 L 670,66 L 670,80 L 669,81 L 669,95 L 668,96 L 668,109 L 667,110 L 667,117 L 684,117 L 684,103 L 685,102 L 685,82 L 686,81 L 686,69 L 687,68 L 688,69 L 688,73 L 689,74 L 689,77 L 690,78 L 690,80 L 691,81 L 691,84 L 692,85 L 692,88 L 693,89 L 693,90 L 694,91 L 694,93 L 695,94 L 695,96 L 696,97 L 696,99 L 697,100 L 697,102 L 698,103 L 698,105 L 699,106 L 699,108 L 700,109 L 700,111 L 701,112 L 701,115 L 702,116 L 702,117 L 716,117 L 717,116 L 717,113 L 718,112 L 718,110 L 719,109 L 719,107 L 720,106 L 720,104 L 721,103 L 721,100 L 722,99 L 722,97 L 723,96 L 723,94 L 724,93 L 724,91 L 725,90 L 725,89 L 726,88 L 726,85 L 727,84 L 727,81 L 728,80 L 728,78 L 729,77 L 729,74 L 730,73 L 730,69 L 731,68 L 731,66 L 732,65 L 733,66 L 733,100 L 734,101 L 734,117 L 751,117 L 751,106 L 750,105 L 750,92 L 749,91 L 749,78 L 748,77 L 748,64 L 747,63 L 747,50 L 746,49 L 746,44 L 745,43 L 724,43 L 723,44 L 723,46 L 722,47 L 722,49 L 721,50 L 721,53 L 720,54 L 720,56 L 719,57 L 719,59 L 718,60 L 718,63 L 717,64 L 717,66 L 716,67 L 716,69 L 715,70 L 715,73 L 714,74 L 714,76 L 713,77 L 713,80 L 712,81 L 712,84 L 711,85 L 711,88 L 710,89 L 710,90 L 709,91 L 708,90 L 708,86 L 707,85 L 707,82 L 706,81 L 706,78 L 705,77 L 705,75 L 704,74 L 704,71 L 703,70 L 703,68 L 702,67 L 702,65 L 701,64 L 701,62 L 700,61 L 700,58 L 699,57 L 699,55 L 698,54 L 698,52 L 697,51 L 697,49 L 696,48 L 696,46 L 695,45 L 695,43 Z" fill="white" stroke="black" stroke-width="1" /><path d="M 601,43 L 601,117 L 619,117 L 619,92 L 620,91 L 625,91 L 627,93 L 627,94 L 628,95 L 628,96 L 629,97 L 629,98 L 630,99 L 630,100 L 631,101 L 631,102 L 632,103 L 632,104 L 633,105 L 633,106 L 634,107 L 634,108 L 635,109 L 635,110 L 636,111 L 636,112 L 638,114 L 638,115 L 639,116 L 639,117 L 660,117 L 660,116 L 659,115 L 659,114 L 657,112 L 657,111 L 656,110 L 656,109 L 654,107 L 654,106 L 653,105 L 653,104 L 652,103 L 652,102 L 650,100 L 650,99 L 649,98 L 649,97 L 647,95 L 647,94 L 646,93 L 646,92 L 644,90 L 644,89 L 643,88 L 644,87 L 645,87 L 646,86 L 647,86 L 653,80 L 653,79 L 655,77 L 655,75 L 656,74 L 656,70 L 657,69 L 657,64 L 656,63 L 656,59 L 655,58 L 655,57 L 654,56 L 654,55 L 653,54 L 653,53 L 648,48 L 647,48 L 646,47 L 645,47 L 644,46 L 643,46 L 642,45 L 640,45 L 639,44 L 632,44 L 631,43 Z" fill="white" stroke="black" stroke-width="1" /><path d="M 541,43 L 541,117 L 592,117 L 592,104 L 591,103 L 561,103 L 560,102 L 560,87 L 561,86 L 588,86 L 588,72 L 561,72 L 560,71 L 560,58 L 561,57 L 591,57 L 591,43 Z" fill="white" stroke="black" stroke-width="1" /><path d="M 467,43 L 466,44 L 466,117 L 485,117 L 485,87 L 486,86 L 509,86 L 510,87 L 510,117 L 528,117 L 528,43 L 510,43 L 510,71 L 509,72 L 486,72 L 485,71 L 485,44 L 484,43 Z" fill="white" stroke="black" stroke-width="1" /><path d="M 402,43 L 402,58 L 421,58 L 422,59 L 422,117 L 440,117 L 440,59 L 441,58 L 460,58 L 460,43 Z" fill="white" stroke="black" stroke-width="1" /><path d="M 273,43 L 272,44 L 272,117 L 322,117 L 322,103 L 291,103 L 290,102 L 290,87 L 291,86 L 319,86 L 319,72 L 291,72 L 290,71 L 290,58 L 291,57 L 322,57 L 322,43 Z" fill="white" stroke="black" stroke-width="1" /><path d="M 360,42 L 359,43 L 355,43 L 354,44 L 352,44 L 351,45 L 349,45 L 348,46 L 347,46 L 346,47 L 345,47 L 343,49 L 342,49 L 335,56 L 335,57 L 333,59 L 333,60 L 332,61 L 332,62 L 331,63 L 331,64 L 330,65 L 330,67 L 329,68 L 329,71 L 328,72 L 328,90 L 329,91 L 329,93 L 330,94 L 330,96 L 331,97 L 331,98 L 332,99 L 332,100 L 333,101 L 333,102 L 334,103 L 334,104 L 336,106 L 336,107 L 340,111 L 341,111 L 343,113 L 344,113 L 346,115 L 348,115 L 349,116 L 350,116 L 351,117 L 354,117 L 355,118 L 360,118 L 361,119 L 370,119 L 371,118 L 375,118 L 376,117 L 379,117 L 380,116 L 381,116 L 382,115 L 384,115 L 386,113 L 387,113 L 389,111 L 390,111 L 395,106 L 395,105 L 398,102 L 398,101 L 399,100 L 399,99 L 400,98 L 400,96 L 401,95 L 401,93 L 402,92 L 402,88 L 403,87 L 403,75 L 402,74 L 402,69 L 401,68 L 401,66 L 400,65 L 400,63 L 399,62 L 399,61 L 398,60 L 398,59 L 396,57 L 396,56 L 389,49 L 388,49 L 386,47 L 385,47 L 384,46 L 383,46 L 382,45 L 381,45 L 380,44 L 377,44 L 376,43 L 372,43 L 371,42 Z" fill="white" stroke="black" stroke-width="1" /><path d="M 231,42 L 230,43 L 225,43 L 224,44 L 222,44 L 221,45 L 219,45 L 218,46 L 216,46 L 215,47 L 214,47 L 212,49 L 211,49 L 203,57 L 203,58 L 201,60 L 201,61 L 200,62 L 200,63 L 199,64 L 199,66 L 198,67 L 198,69 L 197,70 L 197,75 L 196,76 L 196,85 L 197,86 L 197,91 L 198,92 L 198,95 L 199,96 L 199,97 L 200,98 L 200,99 L 201,100 L 201,101 L 202,102 L 202,103 L 205,106 L 205,107 L 207,109 L 208,109 L 211,112 L 212,112 L 214,114 L 215,114 L 216,115 L 218,115 L 219,116 L 221,116 L 222,117 L 225,117 L 226,118 L 231,118 L 232,119 L 244,119 L 245,118 L 250,118 L 251,117 L 254,117 L 255,116 L 258,116 L 259,115 L 260,115 L 261,114 L 262,114 L 262,76 L 232,76 L 232,89 L 243,89 L 244,90 L 244,104 L 242,106 L 232,106 L 231,105 L 229,105 L 228,104 L 227,104 L 226,103 L 225,103 L 219,97 L 219,96 L 218,95 L 218,94 L 217,93 L 217,91 L 216,90 L 216,85 L 215,84 L 215,78 L 216,77 L 216,72 L 217,71 L 217,69 L 218,68 L 218,67 L 219,66 L 219,65 L 222,62 L 222,61 L 223,60 L 224,60 L 226,58 L 227,58 L 228,57 L 229,57 L 230,56 L 232,56 L 233,55 L 244,55 L 245,56 L 249,56 L 250,57 L 252,57 L 253,58 L 255,58 L 256,57 L 256,55 L 257,54 L 257,52 L 258,51 L 258,49 L 259,48 L 259,46 L 257,46 L 256,45 L 254,45 L 253,44 L 250,44 L 249,43 L 245,43 L 244,42 Z" fill="white" stroke="black" stroke-width="1" /><path d="M 66,0 L 65,1 L 62,1 L 61,2 L 58,2 L 57,3 L 55,3 L 54,4 L 53,4 L 52,5 L 50,5 L 49,6 L 48,6 L 47,7 L 46,7 L 45,8 L 44,8 L 43,9 L 42,9 L 41,10 L 40,10 L 38,12 L 37,12 L 36,13 L 35,13 L 32,16 L 31,16 L 26,21 L 25,21 L 21,25 L 21,26 L 16,31 L 16,32 L 14,34 L 14,35 L 12,37 L 12,38 L 11,39 L 11,40 L 9,42 L 9,43 L 8,44 L 8,45 L 7,46 L 7,48 L 6,49 L 6,50 L 5,51 L 5,53 L 4,54 L 4,56 L 3,57 L 3,59 L 2,60 L 2,64 L 1,65 L 1,70 L 0,71 L 0,91 L 1,92 L 1,98 L 2,99 L 2,102 L 3,103 L 3,105 L 4,106 L 4,108 L 5,109 L 5,111 L 6,112 L 6,113 L 7,114 L 7,116 L 8,117 L 8,118 L 9,119 L 9,120 L 11,122 L 11,123 L 12,124 L 12,125 L 14,127 L 14,128 L 16,130 L 16,131 L 21,136 L 21,137 L 25,141 L 26,141 L 31,146 L 32,146 L 35,149 L 36,149 L 38,151 L 39,151 L 40,152 L 41,152 L 42,153 L 43,153 L 44,154 L 45,154 L 46,155 L 47,155 L 48,156 L 49,156 L 50,157 L 51,157 L 52,158 L 54,158 L 55,159 L 57,159 L 58,160 L 61,160 L 62,161 L 65,161 L 66,162 L 71,162 L 72,163 L 94,163 L 95,162 L 100,162 L 101,161 L 104,161 L 105,160 L 108,160 L 109,159 L 111,159 L 112,158 L 113,158 L 114,157 L 116,157 L 117,156 L 118,156 L 119,155 L 120,155 L 121,154 L 122,154 L 123,153 L 124,153 L 125,152 L 126,152 L 128,150 L 129,150 L 131,148 L 132,148 L 135,145 L 136,145 L 149,132 L 149,131 L 152,128 L 152,127 L 154,125 L 154,124 L 155,123 L 155,122 L 156,121 L 156,120 L 157,119 L 157,118 L 158,117 L 158,116 L 159,115 L 159,114 L 160,113 L 160,111 L 161,110 L 161,109 L 162,108 L 162,106 L 163,105 L 163,102 L 164,101 L 164,97 L 165,96 L 165,91 L 166,90 L 166,73 L 165,72 L 165,66 L 164,65 L 164,61 L 163,60 L 163,58 L 162,57 L 162,54 L 161,53 L 161,52 L 160,51 L 160,49 L 159,48 L 159,47 L 158,46 L 158,45 L 157,44 L 157,43 L 156,42 L 156,41 L 155,40 L 155,39 L 153,37 L 153,36 L 151,34 L 151,33 L 149,31 L 149,30 L 136,17 L 135,17 L 132,14 L 131,14 L 129,12 L 128,12 L 126,10 L 125,10 L 124,9 L 123,9 L 122,8 L 121,8 L 120,7 L 119,7 L 118,6 L 117,6 L 116,5 L 114,5 L 113,4 L 112,4 L 111,3 L 108,3 L 107,2 L 105,2 L 104,1 L 100,1 L 99,0 L 96,0 L 96,1 L 99,4 L 99,5 L 103,9 L 103,10 L 106,13 L 106,14 L 110,18 L 110,19 L 114,23 L 114,24 L 117,27 L 117,28 L 121,32 L 121,33 L 124,36 L 124,37 L 128,41 L 128,42 L 131,45 L 131,46 L 134,49 L 134,50 L 135,51 L 135,52 L 137,54 L 137,55 L 138,56 L 138,57 L 139,58 L 139,60 L 140,61 L 140,63 L 141,64 L 141,66 L 142,67 L 142,71 L 143,72 L 143,90 L 142,91 L 142,95 L 141,96 L 141,98 L 140,99 L 140,101 L 139,102 L 139,104 L 137,106 L 137,108 L 135,110 L 135,111 L 134,112 L 134,113 L 131,116 L 131,117 L 125,123 L 125,124 L 124,125 L 123,125 L 120,128 L 119,128 L 116,131 L 115,131 L 114,132 L 113,132 L 111,134 L 110,134 L 109,135 L 108,135 L 107,136 L 105,136 L 104,137 L 102,137 L 101,138 L 99,138 L 98,139 L 95,139 L 94,140 L 87,140 L 86,141 L 80,141 L 79,140 L 72,140 L 71,139 L 68,139 L 67,138 L 64,138 L 63,137 L 62,137 L 61,136 L 59,136 L 58,135 L 57,135 L 56,134 L 55,134 L 54,133 L 53,133 L 51,131 L 50,131 L 48,129 L 47,129 L 42,124 L 41,124 L 39,122 L 39,121 L 34,116 L 34,115 L 32,113 L 32,112 L 30,110 L 30,109 L 29,108 L 29,107 L 28,106 L 28,105 L 27,104 L 27,103 L 26,102 L 26,100 L 25,99 L 25,97 L 24,96 L 24,93 L 23,92 L 23,84 L 22,83 L 22,79 L 23,78 L 23,71 L 24,70 L 24,66 L 25,65 L 25,63 L 26,62 L 26,60 L 27,59 L 27,58 L 28,57 L 28,56 L 29,55 L 29,54 L 30,53 L 30,52 L 32,50 L 32,49 L 34,47 L 34,46 L 37,43 L 37,42 L 41,38 L 41,37 L 44,34 L 44,33 L 48,29 L 48,28 L 51,25 L 51,24 L 55,20 L 55,19 L 59,15 L 59,14 L 62,11 L 62,10 L 66,6 L 66,5 L 69,2 L 69,1 L 70,0 Z" fill="white" stroke="black" stroke-width="1" /></svg>